# xmcd
# 
# Track frame offsets:
#     188
#     17645
#     34410
#     51135
#     66003
#     83930
#     101763
#     117658
#     134490
#     147965
#     163818
#     182608
#     193750
#     211210
#     226573
#     242688
#     257660
#     276725
# 
# Disc length: 4001
# 
# Revision: 14
# Processed by: cddbd v1.5.2PL0 Copyright (c) Steve Scherf et al.
# Submitted via: fre:ac v1.0.31
# 
DISCID=0d0f9f12
DTITLE=Nicki - Mein Hitalbum
DYEAR=1989
DGENRE=Pop-Folk
TTITLE0=Wegen Dir
TTITLE1=Wenn D' Sehnsucht brennt
TTITLE2=Samstag Nacht
TTITLE3=I wär am liabsten mit dir ganz alloa
TTITLE4=So a Wunder
TTITLE5=I bin a bayrisches Cowgirl
TTITLE6=Einsam ohne di
TTITLE7=Koana war so wie du
TTITLE8=Wenn i mit dir tanz
TTITLE9=Servus, mach's guat
TTITLE10=Mit dir des wär mei leben
TTITLE11=Vasolidor
TTITLE12=Weil i immer no an Engerl glaub
TTITLE13=Mehr von dir
TTITLE14=Wenn Teenager träumen
TTITLE15=Truck Driving Man
TTITLE16=Was i bei dir find (Maxi-Version)
TTITLE17=I bin a bayrisches Cowgirl (Maxi-Version)
EXTD=YEAR: 1989
EXTT0=
EXTT1=
EXTT2=
EXTT3=
EXTT4=
EXTT5=
EXTT6=
EXTT7=
EXTT8=
EXTT9=
EXTT10=
EXTT11=
EXTT12=
EXTT13=
EXTT14=
EXTT15=
EXTT16=
EXTT17=
PLAYORDER=
